<?xml version="1.0" encoding="UTF-8" standalone="no"?>
<!-- Created with Inkscape (http://www.inkscape.org/) -->

<svg
   xmlns:dc="http://purl.org/dc/elements/1.1/"
   xmlns:cc="http://creativecommons.org/ns#"
   xmlns:rdf="http://www.w3.org/1999/02/22-rdf-syntax-ns#"
   xmlns:svg="http://www.w3.org/2000/svg"
   xmlns="http://www.w3.org/2000/svg"
   xmlns:sodipodi="http://sodipodi.sourceforge.net/DTD/sodipodi-0.dtd"
   xmlns:inkscape="http://www.inkscape.org/namespaces/inkscape"
   width="210mm"
   height="297mm"
   viewBox="0 0 210 297"
   version="1.1"
   id="svg8"
   inkscape:version="0.92.0 r15299"
   sodipodi:docname="SlotSubmenuExecuteBang.svg">
  <defs
     id="defs2" />
  <sodipodi:namedview
     id="base"
     pagecolor="#ffffff"
     bordercolor="#666666"
     borderopacity="1.0"
     inkscape:pageopacity="0.0"
     inkscape:pageshadow="2"
     inkscape:zoom="2.8"
     inkscape:cx="33.777992"
     inkscape:cy="803.86842"
     inkscape:document-units="mm"
     inkscape:current-layer="layer1"
     showgrid="true"
     inkscape:window-width="1573"
     inkscape:window-height="1122"
     inkscape:window-x="331"
     inkscape:window-y="0"
     inkscape:window-maximized="0">
    <inkscape:grid
       type="xygrid"
       id="grid4485" />
  </sodipodi:namedview>
  <metadata
     id="metadata5">
    <rdf:RDF>
      <cc:Work
         rdf:about="">
        <dc:format>image/svg+xml</dc:format>
        <dc:type
           rdf:resource="http://purl.org/dc/dcmitype/StillImage" />
        <dc:title></dc:title>
      </cc:Work>
    </rdf:RDF>
  </metadata>
  <g
     inkscape:label="Layer 1"
     inkscape:groupmode="layer"
     id="layer1">
    <path
       id="path4493-4"
       transform="scale(-1)"
       style="fill:#000000;fill-opacity:1;stroke-width:2;stroke-linecap:round;stroke-linejoin:round;stroke-miterlimit:4;stroke-dasharray:none"
       d="m -29.104164,-48.291662 6.609523,13.392351 14.7793388,2.147567 -10.6944288,10.424494 2.52461,14.7196208 -13.219043,-6.9496598 -13.219044,6.9496591 2.52461,-14.7196201 -10.694428,-10.424495 14.779338,-2.147566 z m -3e-6,44.979162 -6.609522,-13.392354 -14.779341,-2.147566 10.694431,-10.424494 -2.524611,-14.719623 13.219044,6.949663 13.219045,-6.949662 -2.524612,14.719622 10.6944304,10.424496 -14.7793404,2.147564 z" />
    <path
       inkscape:connector-curvature="0"
       id="path4493-4-1"
       style="fill:#00b500;fill-opacity:1;stroke-width:2;stroke-linecap:round;stroke-linejoin:round;stroke-miterlimit:4;stroke-dasharray:none"
       d="M 29.104164,101.20833 22.494641,87.815977 7.7153022,85.668413 18.409731,75.243917 l -2.52461,-14.71962 13.219043,6.949659 13.219045,-6.949659 -2.524611,14.71962 10.694429,10.424496 -14.779339,2.147564 z m 3e-6,-44.979163 6.609523,13.392354 14.779339,2.147566 L 39.7986,82.193581 42.323209,96.913204 29.104166,89.963542 15.885121,96.913204 18.409733,82.193581 7.7153026,71.769085 22.494643,69.621521 Z" />
    <path
       style="fill:none;stroke:#000000;stroke-width:4;stroke-linecap:round;stroke-linejoin:miter;stroke-opacity:1;stroke-miterlimit:4;stroke-dasharray:none"
       d="M 13.229167,99.885417 44.979166,57.552084"
       id="path4586"
       inkscape:connector-curvature="0" />
  </g>
</svg>
