<?xml version="1.0" encoding="UTF-8" standalone="no"?>
<!-- Created with Inkscape (http://www.inkscape.org/) -->

<svg
   xmlns:dc="http://purl.org/dc/elements/1.1/"
   xmlns:cc="http://creativecommons.org/ns#"
   xmlns:rdf="http://www.w3.org/1999/02/22-rdf-syntax-ns#"
   xmlns:svg="http://www.w3.org/2000/svg"
   xmlns="http://www.w3.org/2000/svg"
   xmlns:sodipodi="http://sodipodi.sourceforge.net/DTD/sodipodi-0.dtd"
   xmlns:inkscape="http://www.inkscape.org/namespaces/inkscape"
   width="210mm"
   height="297mm"
   viewBox="0 0 210 297"
   version="1.1"
   id="svg5161"
   inkscape:version="0.92.0 r15299"
   sodipodi:docname="SlotSubmenuProcess.svg">
  <defs
     id="defs5155" />
  <sodipodi:namedview
     id="base"
     pagecolor="#ffffff"
     bordercolor="#666666"
     borderopacity="1.0"
     inkscape:pageopacity="0.0"
     inkscape:pageshadow="2"
     inkscape:zoom="2.8"
     inkscape:cx="124.31646"
     inkscape:cy="959.29599"
     inkscape:document-units="mm"
     inkscape:current-layer="layer1"
     showgrid="true"
     inkscape:window-width="1580"
     inkscape:window-height="1122"
     inkscape:window-x="324"
     inkscape:window-y="0"
     inkscape:window-maximized="0">
    <inkscape:grid
       type="xygrid"
       id="grid5706" />
  </sodipodi:namedview>
  <metadata
     id="metadata5158">
    <rdf:RDF>
      <cc:Work
         rdf:about="">
        <dc:format>image/svg+xml</dc:format>
        <dc:type
           rdf:resource="http://purl.org/dc/dcmitype/StillImage" />
        <dc:title></dc:title>
      </cc:Work>
    </rdf:RDF>
  </metadata>
  <g
     inkscape:label="Layer 1"
     inkscape:groupmode="layer"
     id="layer1">
    <path
       style="fill:#000000;fill-opacity:1;stroke:#000000;stroke-width:15.11811066;stroke-linecap:round;stroke-linejoin:round;stroke-miterlimit:4;stroke-dasharray:none;stroke-opacity:1"
       d="M 155 37.519531 A 140 140 0 0 0 15 177.51953 A 140 140 0 0 0 155 317.51953 A 140 140 0 0 0 295 177.51953 A 140 140 0 0 0 155 37.519531 z M 155 61.480469 A 116.03988 116.03988 0 0 1 271.03906 177.51953 A 116.03988 116.03988 0 0 1 155 293.55859 A 116.03988 116.03988 0 0 1 38.960938 177.51953 A 116.03988 116.03988 0 0 1 155 61.480469 z "
       transform="scale(0.26458333)"
       id="path5714" />
    <path
       style="fill:none;stroke:#000000;stroke-width:3;stroke-linecap:round;stroke-linejoin:round;stroke-opacity:1;stroke-miterlimit:4;stroke-dasharray:none"
       d="M 31.75,32.416668 41.010416,41.677084 31.75,50.937501"
       id="path5758"
       inkscape:connector-curvature="0" />
  </g>
</svg>
